<svg width="260" height="290" viewBox="0 0 260 290" fill="none" xmlns="http://www.w3.org/2000/svg">
<path d="M233.248 69.3771C242.444 74.686 248.077 84.5274 247.998 95.1454V191.551C247.996 202.264 242.186 212.133 232.82 217.334L144.32 273.871C135.413 278.818 124.583 278.818 115.676 273.871L27.1758 217.334C17.815 212.136 12.0059 202.274 11.998 191.566V95.1454C12.0006 84.4327 17.8104 74.5634 27.1758 69.3624L115.676 16.6754C124.847 11.5704 136.005 11.5704 145.176 16.6754L233.676 69.3771H233.248Z" stroke="#FF8904" stroke-width="22.8387" stroke-linecap="round" stroke-linejoin="round"/>
<path d="M181.627 107.093C186.227 109.749 189.044 114.673 189.002 119.984V168.187C188.999 173.545 186.091 178.48 181.406 181.079L137.156 209.355C132.706 211.822 127.298 211.822 122.848 209.355L78.5982 181.079C73.9173 178.483 71.0101 173.555 71.002 168.202V119.984C71.0017 114.629 73.9036 109.695 78.5835 107.093L122.833 80.7493C127.421 78.1975 133.011 78.1975 137.583 80.7493L181.833 107.108L181.627 107.093Z" stroke="#FF8904" stroke-width="22.8387" stroke-linecap="round" stroke-linejoin="round"/>
<path d="M130 277.75V145L19.375 78.625" stroke="#FF8904" stroke-width="22.8387" stroke-linecap="round" stroke-linejoin="round"/>
<path d="M130 145L240.625 78.625" stroke="#FF8904" stroke-width="22.8387" stroke-linecap="round" stroke-linejoin="round"/>
<path d="M130 12.25V78.625" stroke="#FF8904" stroke-width="22.8387" stroke-linecap="round" stroke-linejoin="round"/>
<path d="M240.623 204L188.998 174.5" stroke="#FF8904" stroke-width="22.8387" stroke-linecap="round" stroke-linejoin="round"/>
<path d="M71 174.5L19.375 204" stroke="#FF8904" stroke-width="22.8387" stroke-linecap="round" stroke-linejoin="round"/>
</svg>
